<svg width="40" height="52" fill="none" xmlns="http://www.w3.org/2000/svg">
  <path d="M17 3h.9c1.2 0 2.4.2 3.6.5V.7a21 21 0 00-5.2-.7H16A29.8 29.8 0 00.8 4.1v28.4a31.6 31.6 0 0113.6-3.8h1.1v-3a34.3 34.3 0 00-10.8 2l-1 .3V5.8l.4-.2A28.3 28.3 0 0115.9 3H17z" fill="#AFB1B8"/>
  <path d="M24.1 6a26 26 0 01-5.5-.7v28c1.8.5 3.6.8 5.5.7a30 30 0 0015.1-4V2a31.8 31.8 0 01-15 4zm11.2.4l1-.3v22.1l-.4.2a27.8 27.8 0 01-13.8 2.7h-.6V8.2H24a34.3 34.3 0 0011.2-1.9zM2.7 42.2a1.5 1.5 0 00-1-.4H1a1.5 1.5 0 00-1 1.5v3.8c0 .3 0 .6.2.8 0 .2.2.4.3.5l.6.3h1.1a1.6 1.6 0 001-1.5v-.4h-1v.6l-.2.2-.2.2h-.2a.5.5 0 01-.5-.2L1 47v-3.6L1 43a.5.5 0 01.5-.3.5.5 0 01.4.3c.2.1.2.3.2.5v.3h1v-.4a1.8 1.8 0 00-.5-1.2zM8.6 42.2a1.8 1.8 0 00-1.7-.3c-.2 0-.4.1-.5.3l-.4.5-.1.7v3.7l.1.7c0 .2.2.4.4.5.1.2.3.3.5.3a1.7 1.7 0 001.2 0c.2 0 .4-.1.5-.3a1.6 1.6 0 00.5-1.2v-3.7l-.1-.7c0-.2-.2-.4-.4-.5zM8.2 47a.7.7 0 01-.2.5.7.7 0 01-1 0 .7.7 0 01-.2-.5v-3.7A.7.7 0 017 43a.7.7 0 011 0 .7.7 0 01.2.5v3.7zM16.4 48.7v-6.9h-1l-1.2 3.7-1.3-3.7h-1v6.9h1v-4.2l1 3h.5l1-3v4.2h1zM22 42.3l-.6-.4h-2.2v6.8h1V46h.5c.3 0 .6 0 .9-.2l.5-.5.3-.6a4.9 4.9 0 000-1.8l-.4-.6zm-.5 2l-.1.5-.3.2a1 1 0 01-.5 0h-.4v-2.3h.5l.4.1.3.3v1.3zM26.6 41.8h-.8l-1.5 6.9h1l.3-1.5h1.3l.3 1.5h1l-1.6-6.9zm-.9 4.5l.5-2.5.5 2.5h-1zM33 46l-1.6-4.2h-.9v6.9h1v-4.1l1.5 4.1h1v-6.9h-1V46zM39 41.8l-.8 2.7-.9-2.7h-1l1.4 4v2.9h1v-3l1.3-3.9h-1zM0 50.6h.5V52h.3v-1.4h.5v-.2H0v.2zM4 50.4L3.4 52h.3l.1-.4h.7l.1.4H5l-.7-1.6H4zm0 1l.1-.7.3.6h-.5zM8 51.4h.3v.2l-.4.1a.4.4 0 01-.3-.1l-.2-.4c0-.4.2-.6.5-.6a.3.3 0 01.4.3h.3c0-.4-.3-.6-.7-.6l-.6.2a.8.8 0 00-.2.7c0 .2 0 .4.2.6a.8.8 0 00.6.2c.3 0 .5 0 .7-.3v-.6h-.7v.3zM12 50.4h-.4V52h1.1v-.3H12v-1.3zM15.3 50.4H15V52h.3v-1.6zM18.6 51.4l-.6-1h-.3V52h.3v-1l.6 1h.3v-1.6h-.3v1zM21.6 51.3h.8V51h-.8v-.4h.9v-.2h-1.2V52h1.2v-.3h-.9v-.4zM29 51h-.7v-.6H28V52h.3v-.7h.6v.7h.3v-1.6H29v.6zM32 51.3h.7V51H32v-.4h.9v-.2h-1.2V52h1.2v-.3H32v-.4zM36 51.3c.3 0 .4-.2.4-.5a.4.4 0 00-.1-.3.9.9 0 00-.5-.1h-.7V52h.4v-.7h.2l.1.2.4.5h.4l-.2-.3-.4-.4zm-.3-.3h-.2v-.4h.5a.2.2 0 010 .4 1 1 0 01-.3 0zM39.1 51.3h.8V51h-.8v-.4h.9v-.2h-1.2V52H40v-.3h-.9v-.4z" fill="#AFB1B8"/>
</svg>
