<svg width="82" height="41" fill="none" xmlns="http://www.w3.org/2000/svg">
  <path d="M12.8 12.4c-2.4 0-4.3 1.8-4.3 3.9 0 2.1 2 3.9 4.3 3.9s4.2-1.8 4.2-3.9c0-2.1-1.9-3.9-4.2-3.9zM43.9 11.2c0-3-1.3-5.8-3.6-8A12.8 12.8 0 0031.7 0c-3.2 0-6.3 1.2-8.6 3.3-2.3 2-3.6 5-3.6 7.9v16.4S43.9 25 43.9 11.2zM0 33c0 2 .9 4 2.5 5.4a9 9 0 0012 0A7.5 7.5 0 0017 33V21.5S0 23.3 0 33zm8.5 2c-.4 0-.9-.2-1.2-.4a2 2 0 01-.9-.9c-.1-.4-.2-.8 0-1.2 0-.4.2-.7.5-1a2.4 2.4 0 012.4-.4c.4 0 .8.4 1 .7a2 2 0 01-.2 2.6l-.8.4-.8.2zM25.7 33.8h-1.6v1.8h-1v-4.3H26v.7h-2v1.1h1.7v.7zm4.3-.3c0 .5-.1.8-.3 1.1a1.7 1.7 0 01-1.5 1c-.4 0-.7 0-1-.2-.3-.2-.5-.4-.6-.7-.2-.4-.3-.7-.3-1.1v-.2c0-.5.1-.8.3-1.2a1.7 1.7 0 011.5-1c.4 0 .7.1 1 .3.3.2.5.4.6.7.2.4.3.7.3 1.1v.2zm-1-.2c0-.4 0-.7-.2-1a.8.8 0 00-.7-.3c-.2 0-.5 0-.6.3-.2.3-.3.6-.3 1v.2c0 .5.1.8.3 1 .1.3.4.4.7.4.2 0 .5-.1.6-.3.2-.3.3-.6.3-1v-.3zm3.8 1.2c0-.2 0-.3-.2-.4l-.6-.3-.7-.3c-.5-.3-.7-.6-.7-1 0-.3 0-.5.2-.7 0-.2.3-.3.5-.4l.8-.2.8.2c.3.1.5.3.6.5l.2.7h-.9c0-.2 0-.4-.2-.5a.8.8 0 00-.5-.2l-.5.2-.2.3.2.4.7.3c.5.1.8.3 1 .5.3.2.4.5.4.8 0 .4-.1.7-.4 1l-1.1.2-1-.1-.6-.5-.2-.8h1c0 .5.2.7.8.7h.4l.2-.4zm4.7-2.5h-1.3v3.6h-.9V32H34v-.7h3.5v.7zm3 1.7H39V35h2v.7H38v-4.3H41v.7h-2v1h1.7v.7zm2.5.3h-.7v1.6h-1v-4.3H43c.5 0 .9.1 1.1.3.3.3.4.6.4 1l-.1.7-.6.5 1 1.7h-1L43 34zm-.7-.7h.7c.2 0 .4 0 .5-.2l.2-.4c0-.2 0-.4-.2-.5L43 32h-.7v1.3zm5.3.8v1.5h-.9v-4.3h1.7c.3 0 .6 0 .8.2.3.1.5.3.6.5l.2.7c0 .4-.2.8-.5 1-.2.3-.6.4-1.1.4h-.8zm0-.7h.8l.5-.2.2-.5c0-.2 0-.4-.2-.5a.7.7 0 00-.5-.2h-.8v1.4zm5.6.3h-1.7V35h2v.7h-3v-4.3h3v.7h-2v1h1.7v.7zm4-1.7H56v3.6H55V32h-1.2v-.7h3.4v.7zm3.1 1.7h-1.7V35h2v.7h-2.9v-4.3h2.9v.7h-2v1h1.7v.7zm2.4.3H62v1.6H61v-4.3h1.6c.5 0 .9.1 1.2.3.2.3.4.6.4 1 0 .3 0 .5-.2.7-.1.2-.3.4-.6.5l1 1.7h-1l-.8-1.5zm-.7-.7h.7c.2 0 .4 0 .5-.2l.2-.4c0-.2 0-.4-.2-.5l-.5-.2H62v1.3zm5.2 1.2L67 34l-.7-.3-.7-.3c-.5-.3-.7-.6-.7-1 0-.3 0-.5.2-.7l.5-.4.9-.2.8.2.5.5c.2.2.2.4.2.7h-.8L67 32a.8.8 0 00-.5-.2c-.3 0-.4.1-.5.2-.2 0-.2.2-.2.3 0 .2 0 .3.2.4l.6.3c.5.1.9.3 1 .5.3.2.4.5.4.8 0 .4-.1.7-.4 1l-1.1.2-1-.1-.5-.5c-.2-.3-.2-.5-.2-.8h.8c0 .5.3.7.9.7h.5l.2-.4z" fill="#AFB1B8"/>
</svg>
