<svg width="89" height="45" fill="none" xmlns="http://www.w3.org/2000/svg">
  <path d="M44.7 20.7a3 3 0 01-.5-2v-2.9c0-.9.2-1.6.5-2 .4-.5 1-.7 2-.7.9 0 1.5.2 1.8.6.4.5.6 1.1.6 1.7v.7h-1.6v-.7-.7l-.2-.4a.9.9 0 00-.6-.1 1 1 0 00-.6.1l-.2.5-.1.7V19c0 .3 0 .7.2 1l.3.2c.1 0 .3.1.4 0h.5c.2-.2.3-.3.3-.5v-1.4h1.6v.6c0 .7-.2 1.3-.6 1.9-.3.4-1 .6-1.8.6-1 0-1.6-.2-2-.7zM51.2 20.7c-.4-.4-.6-1-.6-2v-3c0-.9.2-1.5.6-2 .4-.4 1-.6 2-.6.9 0 1.5.2 1.9.7.4.4.6 1 .6 2v3c0 .8-.2 1.5-.6 2-.4.4-1 .6-2 .6-.9 0-1.5-.2-2-.7zm2.7-.7l.2-1v-3.6c0-.3 0-.6-.2-1l-.3-.2H53h-.4l-.3.3-.2.9V19c0 .3 0 .6.2 1l.3.1A1 1 0 0054 20zM57.6 13.2h1.6l1.3 5.6 1.3-5.6h1.6l.1 8h-1.2v-5.5L61 21.3h-1l-1.3-5.7v5.7h-1.3l.2-8.1zM65.4 13.2H68c1.5 0 2.2.8 2.2 2.3 0 1.5-.7 2.2-2.3 2.2H67v3.6h-1.6v-8.1zm2.2 3.4a1.2 1.2 0 001-.2c0-.3.2-.6.1-1v-.7l-.2-.2-.2-.1-.7-.2H67v2.4h.6zM72.6 13.2h1.7l1.7 8h-1.5l-.3-1.8h-1.5l-.4 1.9h-1.5l1.8-8.1zm1.4 5.3l-.6-3.4-.6 3.4H74zM77.5 13.2h1l2.2 4.6v-4.6h1.4v8H81l-2.2-4.7v4.8h-1.3v-8.1zM85.2 18.2l-1.8-5h1.5l1 3.2 1.1-3.2h1.5l-1.8 5v3h-1.5v-3zM47.2 24.8v.4H46v3.3h-.5v-3.3H44v-.4h3.2zM51.3 28.5H51h-.1-.1l-.4-1h-1.8l-.4 1h-.6l1.6-3.7h.6l1.6 3.7zm-2.6-1.3h1.5l-.7-1.6v-.3l-.1.2-.1.1-.6 1.6zM54 28.2h.4a1.7 1.7 0 00.5-.1l.2-.1V27h-.7v-.4h1.2v1.5a2.4 2.4 0 01-1.1.4H54c-.3 0-.5 0-.8-.2a1.8 1.8 0 01-1.2-1.7c0-.3 0-.5.2-.8 0-.2.2-.4.4-.6l.6-.4a2.5 2.5 0 011.3 0 2.1 2.1 0 01.7.2l.3.2-.2.2H55 55l-.3-.1a2 2 0 00-1.3 0l-.4.2c-.2.2-.3.3-.3.5-.2.4-.2.8 0 1.2 0 .2.1.4.3.5l.4.3h.7zM59.2 28.1h1.7v.4h-2.3v-3.7h.6v3.3zM62.8 28.5h-.6v-3.7h.6v3.7zM64.8 24.8v.1l2.4 2.8v-.1V24.8h.5v3.7h-.3-.1l-2.4-2.9V28.5h-.5v-3.7h.3zM71.7 24.8v.4h-2v1.3h1.7v.3h-1.6v1.3h2v.4h-2.6v-3.7h2.5zM14.3 1.9l24.3 6.3v22.2l-24.3-6.3V1.9zM12.7 0v25.2l27.5 7.1V7.2L12.7 0z" fill="#AFB1B8"/>
  <path d="M27.5 44L0 37V11.7l27.5 7.1V44z" fill="#AFB1B8"/>
  <path d="M13.2 1.6l24 6.3L27 17.2 3 11l10.2-9.4zM12.7 0L0 11.7l27.5 7.1L40.2 7.2 12.7 0zM29 42.6l11.2-10.3L29 29.4v13.2z" fill="#AFB1B8"/>
</svg>
