<svg width="41" height="42" fill="none" xmlns="http://www.w3.org/2000/svg">
  <path d="M6.3 40.5h.1l.2.2-.5.4-.9.2a2 2 0 01-.7-.2 1.7 1.7 0 01-1-1 2 2 0 010-1.4 1.7 1.7 0 011-1 2.3 2.3 0 011.6 0l.5.4-.2.2h-.2l-.2-.1a1.4 1.4 0 00-.7-.2l-.5.1c-.2 0-.4.2-.5.3L4 39v.5.6c0 .2.2.4.3.5l.4.3H5.6a1.2 1.2 0 00.6-.3h.1zM12.3 39.4c0 .3 0 .5-.2.8l-.3.6-.6.3c-.6.2-1.1.2-1.6 0l-.6-.3-.4-.6a2 2 0 010-1.5c0-.2.2-.4.4-.6l.6-.4c.5-.1 1-.1 1.6 0l.6.4.3.6.2.7zm-.6 0v-.6l-.3-.4-.5-.3H9.8a1.2 1.2 0 00-.7.7V40c0 .2.1.4.3.5l.4.3h1.1l.5-.3.2-.5c.1-.2.2-.4.1-.6zM16.3 40v.2l.2-.1v-.2l1.3-2.2H18.4v3.5H18v-2.6-.1-.1l-1.3 2.2-.2.1h-.2v-.1l-1.4-2.3V41.2h-.4v-3.6h.4l.1.1 1.4 2.2v.2zM21.3 39.9v1.3h-.5v-3.6h1.1l.7.1.4.2.3.4v.9l-.3.4-.5.2a2 2 0 01-.6.1h-.6zm0-.4h1l.3-.2.2-.2v-.3-.3l-.2-.3a1 1 0 00-.7-.2h-.6v1.5zM28.2 41.2h-.4-.1l-.4-1h-1.8l-.4 1h-.5l1.5-3.6h.5l1.6 3.6zM25.7 40H27l-.6-1.5-.1-.3v.2l-.1.1-.6 1.5zM30.4 37.7h.1l2.3 2.7V37.5h.4v3.6H33h-.2l-2.3-2.8V41.2h-.4v-3.6H30.4zM37 39.8v1.4h-.5v-1.4L35 37.6h.5l.1.2.9 1.4a2.2 2.2 0 01.2.3v-.2l.1-.1.9-1.5H38.5L37 39.7zM16 31.6h.8a19 19 0 008.4-6.6c2-3 3-6.5 3-10l-3.8-3.5a19 19 0 01-1 11.1c-1.5 3.6-4 6.7-7.3 9z" fill="#AFB1B8"/>
  <path d="M14.7 31.5h.1a20 20 0 007.7-9.3c1.5-3.7 1.7-7.7.7-11.6l-5.5-5a22.7 22.7 0 01-3 25.9zM33.2 19.2A18.1 18.1 0 0123.7 31c2.7-.7 5.1-2 7.1-3.7 2-1.7 3.6-3.8 4.6-6.2l-2.2-2z" fill="#AFB1B8"/>
  <path d="M32.3 18.6l-3.1-2.9c0 3.3-1.1 6.5-3 9.4a19.5 19.5 0 01-7.7 6.7c.8 0 1.5 0 2.2-.2 3-1 5.5-2.9 7.6-5.1 2-2.3 3.4-5 4-7.9zM15.2 3.5L11.4 0a17.7 17.7 0 00-8.3 6c-2 2.8-3 6-3.1 9.3 0 3.7 1.4 7.3 3.8 10.1a18 18 0 009.7 5.9 22.2 22.2 0 001.6-27.8zM41 18c0-4.3-1.9-8.5-5.2-11.5a18.6 18.6 0 00-19-3.8l23 21.2c.8-1.8 1.2-3.8 1.2-5.8z" fill="#AFB1B8"/>
</svg>
