<svg width="59" height="47" fill="none" xmlns="http://www.w3.org/2000/svg">
  <path d="M4.5 39.3c.2.3.3.6.3 1a1.6 1.6 0 01-.5 1.3c-.4.3-1 .5-1.6.4H0v-6.4h2.7c.5 0 1 .1 1.5.5a1.5 1.5 0 01.5 1.2c0 .3-.1.7-.3 1-.2.2-.5.4-.8.4.3.1.7.3.9.6zm-3.2-1h1.1c.3 0 .5 0 .8-.2a.8.8 0 00.2-.6.8.8 0 00-.2-.7l-.8-.2H1.3v1.7zm2 2.5a.8.8 0 00.2-.7.8.8 0 00-.2-.6c-.3-.2-.5-.3-.8-.3H1.3V41h1.2c.3 0 .5 0 .8-.2zM10 42l-1.5-2.5h-.6V42H6.6v-6.4h2.5c.6 0 1.2.2 1.7.6a2 2 0 01.1 2.6 2 2 0 01-1.1.7l1.6 2.5H10zm-2-3.3h1c.7 0 1-.4 1-1a1 1 0 00-.2-.7c-.2-.2-.5-.3-.8-.3H8v2zM17 40.7h-2.6L14 42h-1.4l2.4-6.3h1.4l2.4 6.3h-1.4l-.4-1.3zm-.4-1l-.9-2.6-1 2.7h2zM25.8 42h-1.3l-2.9-4.3V42h-1.2v-6.4h1.2l2.9 4.4v-4.4h1.3V42zM33 40.5c-.2.5-.6.9-1.1 1.1-.6.3-1.2.4-1.8.4h-2.3v-6.4h2.3c.6 0 1.2.1 1.8.4.5.3.9.7 1.1 1.1a3.7 3.7 0 010 3.4zm-1.4-.2a2.4 2.4 0 000-3c-.4-.4-1-.6-1.6-.6h-.9V41h.9c.6 0 1.2-.2 1.6-.6zM17.8 0s16.4 6.2 16 15.3v15.2s-16.3-6.2-16-15.2V0zM48.5 27c3.2-2.2 6.7-3.5 10.5-4v-4.7c-4.3 1.7-8 4.7-10.5 8.6z" fill="#AFB1B8"/>
  <path d="M46.7 28.4c2.5-5.2 7-9.1 12.3-11.1V3.5s-23.4 9-23 21.8V47l2.8-1.1v-2.1c.5-6 3.3-11.5 7.9-15.4z" fill="#AFB1B8"/>
  <path d="M44.5 36.5c0-1.5.4-3 .8-4.5a21 21 0 00-5 13.1 68 68 0 004.5-2.3c-.4-2.1-.5-4.2-.3-6.3zM45.4 36.5c-.2 2 0 3.9.3 5.7 6.4-3.8 13.6-9.7 13.3-17v-.6a21 21 0 00-12.2 5.8c-.8 2-1.2 4-1.4 6.1z" fill="#AFB1B8"/>
</svg>
