<svg width="20" height="20" fill="none" xmlns="http://www.w3.org/2000/svg">
  <g clip-path="url(#clip0)" fill="#AFB1B8">
    <path d="M20 5.9c0-1-.2-1.8-.5-2.4-.2-.7-.6-1.3-1.1-1.8A5 5 0 0016.6.5 68.2 68.2 0 003.5.5c-.7.3-1.3.7-1.8 1.2A5 5 0 00.6 3.4C.3 4.1 0 4.8 0 6a68.2 68.2 0 00.5 10.7 5 5 0 001.1 1.7 5 5 0 001.8 1.2c.6.2 1.3.4 2.4.4a73.2 73.2 0 0010.7-.4 5.1 5.1 0 003-3l.4-2.4A73.4 73.4 0 0020 6zM18.2 14c0 1-.2 1.5-.4 1.9-.3.9-1 1.6-1.9 1.9-.3.1-.8.3-1.8.3a70.4 70.4 0 01-10-.3 3 3 0 01-1.1-.7c-.3-.4-.6-.8-.7-1.2-.2-.3-.4-.9-.4-1.9a70.4 70.4 0 01.4-9.9c.1-.4.4-.8.7-1.1.3-.4.7-.6 1.1-.8.4-.1 1-.3 2-.3a70.5 70.5 0 019.8.3c.5.2.9.4 1.2.8.3.3.6.7.7 1.1.2.4.3.9.4 1.9a70.5 70.5 0 010 8z"/>
    <path d="M10 4.9A5.1 5.1 0 1010 15 5.1 5.1 0 0010 5zm0 8.4a3.3 3.3 0 110-6.6 3.3 3.3 0 010 6.6zM16.6 4.7a1.2 1.2 0 11-2.4 0 1.2 1.2 0 012.4 0z"/>
  </g>
  <defs>
    <clipPath id="clip0">
      <path fill="#fff" d="M0 0h20v20H0z"/>
    </clipPath>
  </defs>
</svg>
