<svg aria-hidden="true" style="position:absolute;width:0;height:0" xmlns="http://www.w3.org/2000/svg" overflow="hidden">
  <defs>
    <symbol id="icon-form_email" viewBox="0 0 32 32">
      <path d="M26.7 5.3H5.3A2.7 2.7 0 002.7 8v16c0 1.5 1.2 2.7 2.6 2.7h21.4c1.4 0 2.6-1.2 2.6-2.7V8c0-1.5-1.2-2.7-2.6-2.7zM26 11l-9.4 5.9c-.4.3-1 .3-1.4 0L5.9 11c-.4-.2-.6-.6-.6-1 0-.9 1-1.4 1.8-1l8.9 5.7L25 9A1.1 1.1 0 1126 11z"/>
    </symbol>
    <symbol id="icon-form_phone" viewBox="0 0 32 32">
      <path d="M24.9 19.8l-3.3-.4c-.8 0-1.5.2-2.1.7l-2.4 2.4A19.4 19.4 0 018.7 14l2.3-2.4c.6-.5.9-1.3.8-2l-.4-3.3A2.6 2.6 0 008.8 4H6.6A2.6 2.6 0 004 6.7c.7 11 9.5 19.7 20.5 20.4 1.4.1 2.6-1.1 2.6-2.6v-2.2c0-1.3-1-2.4-2.2-2.5z"/>
    </symbol>
    <symbol id="icon-form_person" viewBox="0 0 32 32">
      <path d="M16 16a5.3 5.3 0 100-10.7A5.3 5.3 0 0016 16zm0 2.7c-3.6 0-10.7 1.8-10.7 5.3v1.3c0 .8.6 1.4 1.4 1.4h18.6c.8 0 1.4-.6 1.4-1.4V24c0-3.5-7.1-5.3-10.7-5.3z"/>
    </symbol>
  </defs>
</svg>
