<svg aria-hidden="true" style="position:absolute;width:0;height:0" xmlns="http://www.w3.org/2000/svg" overflow="hidden">
  <defs>
    <symbol id="icon-customers-logo-1" viewBox="0 0 32 32">
      <path  d="M5 0l4.9 4.5h13.6v12.4l4.8 4.5V0H5z"/>
      <path  d="M1 4.3V25h22.7v-8.3L10 4.3H1zM19.3 22H4.6V8h1v13h13.7v1zM7.5 29l.6-1.1h.4l-.8 1.5v.8h-.4v-.8l-.8-1.5H7l.5 1zm2.4.7h-1l-.1.5h-.5l1-2.3h.3l.9 2.3H10l-.2-.5zm-.8-.3h.7l-.4-1-.3 1zm2.4.2v-.3l.4-.3-.2-.3v-.3c0-.1 0-.3.2-.4l.4-.2c.2 0 .3 0 .4.2l.2.4v.2l-.3.3-.2.1.5.5v-.4h.4c0 .3 0 .5-.2.7l.4.4H13l-.1-.1-.6.2c-.2 0-.5 0-.6-.2a.6.6 0 01-.2-.5zm.8.4c.1 0 .2 0 .3-.2l-.5-.6-.2.4v.3h.4zm-.2-1.6l.1.4.2-.2.2-.2-.1-.2h-.2-.2v.2zm4.3 1c0 .3-.2.5-.3.7a1 1 0 01-.7.2 1 1 0 01-.5-.2l-.3-.3-.1-.6V29l.1-.6.3-.4.6-.2.6.2c.2.1.2.4.3.7H16l-.2-.4-.3-.1c-.2 0-.4 0-.5.2a1 1 0 00-.1.5v.3l.1.5.4.2h.4l.2-.4h.4zm2.2-.3l-.1.6c0 .2-.2.3-.3.4a1 1 0 01-.6.2 1 1 0 01-.5-.2 1 1 0 01-.3-.4l-.1-.6V29v-.6a1 1 0 011-.6c.1 0 .3 0 .5.2l.3.4.1.6v.1zm-.4-.1l-.1-.6a.5.5 0 00-.5-.2c-.1 0-.3 0-.4.2a1 1 0 00-.1.6v.1l.1.6c.1.2.3.2.4.2.2 0 .4 0 .5-.2l.1-.6V29z"/>
    </symbol>
    <symbol id="icon-customers-logo-2" viewBox="0 0 32 32">
      <path  d="M14.1 1.8h.6c.7 0 1.5.2 2.2.4V.4a13 13 0 00-3.2-.4h-.2a18.3 18.3 0 00-9.3 2.5V20a19.5 19.5 0 018.4-2.4h.7v-1.8A21.2 21.2 0 006.6 17l-.7.2V3.6l.3-.1a17.4 17.4 0 017.3-1.7H14z"/>
      <path  d="M18.5 3.7a15.8 15.8 0 01-3.4-.4v17.3c1.1.2 2.3.4 3.4.4a18.4 18.4 0 009.3-2.6V1.3a19.6 19.6 0 01-9.3 2.4zm7 .3l.6-.3v13.7l-.3.1a17 17 0 01-8.5 1.6H17V5h1.6a21 21 0 007-1.2zM5.4 26a1 1 0 00-.7-.3 1 1 0 00-.4 0 1 1 0 00-.5.6l-.1.4v2.8l.3.3.3.2h.8a1 1 0 00.5-.6V28.8h-.5v.4l-.2.1h-.1l-.1.1a.3.3 0 01-.3-.1l-.1-.3v-2.2-.4a.3.3 0 01.4 0H5V27h.7v-.3a1 1 0 00-.3-.7zM9 26a1 1 0 00-.7-.3 1 1 0 00-.7.2 1 1 0 00-.2.4l-.1.4V29.4l.3.3.3.2a1 1 0 00.8 0s.2 0 .3-.2l.2-.3.1-.4v-2.3-.4a1 1 0 00-.3-.4zm-.3 3a.4.4 0 01-.1.3.4.4 0 01-.6 0A.4.4 0 018 29v-2.3a.4.4 0 01.1-.3.4.4 0 01.6 0 .4.4 0 01.1.3V29zM13.8 30v-4.3h-.6l-.8 2.3-.8-2.3H11V30h.6v-2.6l.6 1.8h.3l.6-1.8V30h.7zM17.2 26l-.3-.2h-1.4V30h.6v-1.7h.3l.6-.1.3-.3.2-.4a3 3 0 000-1l-.3-.5zm-.3 1.3v.2l-.2.2H16v-1.4h.6l.1.2.1.2v.6zM20 25.7h-.4l-1 4.3h.6l.2-1h.8l.2 1h.6l-1-4.3zm-.5 2.8l.3-1.6.3 1.6h-.6zM24 28.3l-1-2.6h-.5V30h.6v-2.6L24 30h.6v-4.3H24v2.6zM27.7 25.7l-.5 1.7-.5-1.7H26l.9 2.5V30h.6v-1.8l.8-2.5h-.6zM3.7 31.2H4v.8h.2v-.8h.3V31h-.8v.2zM6.1 31l-.3 1H6v-.2h.4l.1.2h.2l-.4-1h-.2zm0 .6l.1-.4.2.4H6zM8.6 31.6h.2v.1l-.2.1h-.2l-.1-.3c0-.2 0-.3.3-.3s.2 0 .2.1H9c0-.2-.2-.3-.4-.3l-.4.1-.1.2c-.1 0 0 .1 0 .2l.1.4a.5.5 0 00.4.1c.1 0 .3 0 .4-.2v-.3h-.4v.1zM11 31h-.2v1h.7v-.2H11V31zM13.1 31H13v1h.2v-1zM15.2 31.7l-.4-.7h-.2v1h.1v-.7l.4.7h.2v-1h-.1v.7zM17 31.5h.5v-.1H17v-.2h.5V31h-.7v1h.8v-.2H17v-.3zM21.5 31.4H21V31h-.2v1h.2v-.4h.4v.4h.2v-1h-.2v.4zM23.3 31.5h.5v-.1h-.5v-.2h.6V31H23v1h.8v-.2h-.6v-.3zM25.9 31.5c.1 0 .2 0 .2-.2a.2.2 0 000-.2l-.4-.1h-.4v1h.2v-.4h.2l.3.4h.2l-.1-.2-.2-.3zm-.2 0h-.2v-.3h.4v.1l-.2.1zM27.8 31.5h.5v-.1h-.5v-.2h.5V31h-.7v1h.7v-.2h-.5v-.3z"/>
    </symbol>
    <symbol id="icon-customers-logo-3" viewBox="0 0 32 32">
      <path d="M5.2 30.9l.2.1c0 .2-.2.3-.4.3-.2.1-.4.2-.6.1h-.6a1.3 1.3 0 01-.7-.8 1.6 1.6 0 010-1.1 1.3 1.3 0 01.7-.7 1.8 1.8 0 011.2 0l.4.2-.1.2H5L5 29a1.2 1.2 0 00-.6-.1H4a1 1 0 00-.3.3 1 1 0 00-.3.3v.9l.3.3.3.3H4.6a1 1 0 00.5-.2h.1zM9.7 30v.6l-.4.5-.4.2c-.4.2-.8.2-1.2 0l-.5-.2-.3-.5v-1.1l.3-.5.5-.2c.4-.2.8-.2 1.2 0 .2 0 .3.1.4.3.2 0 .3.2.3.4l.1.6zm-.4 0v-.4a1 1 0 00-.5-.6h-1a1 1 0 00-.5.6v.9a1 1 0 00.5.6h1a1 1 0 00.5-.6v-.4zM12.8 30.5v.1h.1v-.2l1-1.7h.5v2.7h-.3v-2-.2L13 31l-.1.1c-.1.1 0 0-.1 0h-.1-.1l-1-1.8v2.2h-.4v-2.7h.4l1 1.7.1.1zM16.6 30.4v1h-.4v-2.7h1.4l.3.2.2.3v.7l-.2.3a1 1 0 01-.4.1l-.4.1h-.5zm0-.3h.8l.2-.2.1-.1v-.3-.2l-.1-.2a.8.8 0 00-.5-.1h-.5V30zM21.9 31.4h-.3-.1l-.3-.7h-1.4l-.3.6-.1.1h-.3l1.2-2.7h.4l1.2 2.7zm-2-1H21l-.4-1.1-.1-.3v.2h-.1l-.5 1.2zM23.6 28.7l1.7 2.1v-2.2h.4v2.8h-.4l-1.7-2.1v2.2h-.3v-2.8h.2zM28.6 30.3v1.1h-.4v-1L27 28.6h.4l.8 1.1a2 2 0 010 .3l.1-.1.1-.2.7-1v-.1h.5l-1.1 1.6zM12.6 24.1h.6c2.6-1 4.8-2.8 6.4-5s2.3-5 2.3-7.7l-3-2.6c.6 2.8.4 5.7-.7 8.5s-3 5-5.6 6.8z"/>
      <path d="M11.6 24A14.2 14.2 0 0018 8L14 4.3A17.3 17.3 0 0111.6 24zM25.7 14.6a13.8 13.8 0 01-7.2 9.1c2-.5 3.8-1.5 5.4-2.8s2.7-3 3.5-4.7l-1.7-1.6z"/>
      <path d="M25 14.2L22.6 12c0 2.5-.8 5-2.2 7.1s-3.5 4-5.9 5h1.6a14.1 14.1 0 008.9-10zM12 2.6L9 0C6.6 1 4.4 2.5 2.9 4.6S.4 9.2.4 11.6c0 2.9 1 5.6 2.9 7.8s4.5 3.8 7.4 4.4c2.6-3 4.1-6.6 4.4-10.4s-.9-7.6-3.2-10.8zM31.6 13.8c0-3.4-1.4-6.5-4-8.9a14 14 0 00-14.4-2.8l17.5 16.1c.6-1.4 1-2.9 1-4.4z"/>
    </symbol>
    <symbol id="icon-customers-logo-4" viewBox="0 0 60 32">
      <path d="M9.2 9.5a3 3 0 00-3 3 3 3 0 003 3 3 3 0 003-3 3 3 0 00-3-3zM31.7 8.6c0-2.3-1-4.5-2.6-6S25.2 0 23 0c-2.3 0-4.6 1-6.2 2.5S14 6.3 14 8.6v12.6s17.6-2 17.6-12.6zM0 25.3c0 1.6.7 3 1.8 4.2s2.7 1.8 4.3 1.8c1.7 0 3.2-.7 4.4-1.8s1.8-2.6 1.8-4.2v-8.8S0 18 0 25.3zm6.1 1.6l-.9-.3c-.3-.2-.4-.4-.5-.7l-.1-1 .4-.7c.2-.2.5-.4.8-.4h1c.3 0 .5.4.7.6a1.5 1.5 0 01-.2 2 1.6 1.6 0 01-1.2.5zM18.7 25.9h-1.3v1.3h-.6V24h2v.5h-1.4v.9h1.3v.5zm3.1-.2c0 .3 0 .6-.2.8l-.4.5c-.2.2-.5.2-.7.2-.3 0-.5 0-.7-.2l-.5-.5-.2-.8v-.2c0-.3 0-.6.2-.8a1.3 1.3 0 011.2-.7c.2 0 .5 0 .7.2.2 0 .3.3.4.5.2.2.2.5.2.8v.2zm-.6-.2l-.2-.7c-.1-.1-.3-.3-.5-.3-.3 0-.4 0-.5.3-.2.1-.2.4-.2.7v.2c0 .3 0 .5.2.7s.2.3.5.3c.2 0 .4-.1.5-.3l.2-.7v-.2zm2.7.8v-.2l-.6-.2-.5-.3c-.4-.2-.5-.4-.5-.7l.1-.5.4-.3.6-.1h.6l.4.4.2.5h-.7l-.1-.3-.4-.1H23V25.2l.5.2.8.4.3.6c0 .3-.1.5-.3.7l-.9.2-.6-.1a1 1 0 01-.6-1h.6c0 .4.2.6.6.6h.4l.1-.4zm3.5-1.8h-1v2.7h-.6v-2.7h-1V24h2.6v.5zm2.3 1.3h-1.2v.9h1.4v.5h-2.1V24h2.1v.5h-1.4v.8h1.2v.5zm1.8.2H31v1.2h-.7V24h1.2c.4 0 .7 0 .9.3s.3.4.3.7c0 .2 0 .4-.2.5 0 .2-.2.3-.4.4l.7 1.3H32l-.6-1.2zm-.5-.5h.5l.4-.1.1-.4-.1-.3-.4-.2H31v1zm4 .6v1h-.7v-3H36l.5.4.1.6c0 .3-.1.5-.3.7-.2.2-.5.3-.9.3h-.6zm0-.6h.9l.1-.4v-.4l-.5-.2H35v1zm4 .3h-1.2v.9h1.5v.5h-2.1V24h2v.5h-1.4v.8h1.3v.5zm3.1-1.3h-1v2.7h-.6v-2.7h-1V24h2.6v.5zm2.3 1.3H43v.9h1.5v.5h-2.1V24h2.1v.5h-1.5v.8h1.3v.5zm1.8.2h-.6v1.2H45V24h1.2c.3 0 .6 0 .8.3s.3.4.3.7l-.1.5c0 .2-.2.3-.4.4l.7 1.3h-.7l-.6-1.2zm-.6-.5h.6l.4-.1V25v-.3l-.4-.2h-.6v1zm3.9.8l-.1-.2-.5-.2-.6-.3c-.3-.2-.5-.4-.5-.7 0-.2 0-.4.2-.5l.4-.3.6-.1h.6l.4.4.1.5h-.6l-.1-.3-.4-.1h-.4l-.1.4.1.2.5.2.8.4c.2.1.2.4.2.6 0 .3 0 .5-.3.7l-.8.2-.7-.1a1 1 0 01-.6-1h.7c0 .4.2.6.6.6h.4v-.4z"/>
    </symbol>
    <symbol id="icon-customers-logo-5" viewBox="0 0 32 32">
      <path d="M2.4 24.6c.2.1.2.3.2.5a.9.9 0 01-.3.7c-.2.2-.5.3-.8.2H0v-3.4h1.5c.2 0 .5 0 .8.2a.8.8 0 01.2.7l-.1.5-.5.3c.2 0 .4.1.5.3zM.7 24h1l.1-.2c.1 0 0-.2 0-.2a.4.4 0 000-.4.6.6 0 00-.5 0H.7v.8zm1 1.4l.2-.2V25a.4.4 0 00-.1-.3.6.6 0 00-.5-.2H.7v1h.7l.4-.1zM5.4 26l-.8-1.3h-.3V26h-.7v-3.5h1.3c.3 0 .7 0 1 .3l.2.7-.2.7a1 1 0 01-.6.4l.9 1.4h-.8zm-1.1-1.8h.6c.4 0 .6-.2.6-.5a.5.5 0 00-.2-.4.6.6 0 00-.4-.1h-.6v1zM9.2 25.4H7.8l-.2.7h-.7L8 22.6H9l1.3 3.5h-.7l-.3-.7zm-.2-.6l-.5-1.4-.5 1.4h1zM14 26h-.7l-1.6-2.3V26H11v-3.5h.7l1.6 2.4v-2.4h.7V26zM18 25.2c-.2.3-.4.5-.7.6a2 2 0 01-1 .3h-1.2v-3.5h1.2c.4 0 .7 0 1 .2.3.1.5.3.6.6a2 2 0 010 1.8zm-.9 0a1.3 1.3 0 000-1.7c-.2-.2-.5-.3-.8-.3h-.5v2.2h.5c.3 0 .6 0 .8-.3zM9.6 3.3s9 3.3 8.8 8.2v8.3s-9-3.4-8.7-8.3V3.3zM26.3 17.9c1.7-1.2 3.7-2 5.7-2.1v-2.6c-2.3.9-4.3 2.5-5.7 4.7z"/>
      <path d="M25.3 18.7c1.4-2.8 3.8-5 6.7-6V5.1S19.3 10 19.6 17v11.7l1.4-.6V27c.3-3.2 1.9-6.2 4.3-8.3z"/>
      <path d="M24.1 23c0-.8.2-1.6.5-2.4a11.4 11.4 0 00-2.7 7.1l2.4-1.3c-.2-1-.3-2.2-.2-3.4zM24.6 23c0 1.1 0 2.1.2 3.2C28.2 24 32 20.9 32 17v-.4c-2.5.3-4.8 1.4-6.6 3.1-.4 1-.7 2.2-.8 3.4z"/>
    </symbol>
    <symbol id="icon-customers-logo-6" viewBox="0 0 62 32">
      <path d="M31.1 14.9c-.3-.5-.4-1-.4-1.5v-2c0-.7.2-1.2.4-1.5s.7-.5 1.4-.5c.6 0 1 .1 1.3.4.2.4.4.8.3 1.3v.5h-1V11v-.5l-.2-.3a.6.6 0 00-.4-.1l-.4.1-.2.3v3l.1.8.2.1h.7l.1-.4v-1h1.1v.5c0 .5 0 1-.3 1.3-.3.3-.7.5-1.3.5s-1.1-.2-1.4-.5zM35.6 14.9c-.3-.3-.4-.8-.4-1.4v-2.2c0-.6.1-1.1.4-1.4s.7-.5 1.4-.5c.6 0 1 .2 1.3.5.3.3.4.8.4 1.4v2.2c0 .6-.1 1-.4 1.4s-.7.5-1.3.5-1.1-.2-1.4-.5zm1.9-.5l.1-.7V11l-.1-.6-.2-.2h-.6l-.2.2-.2.6v2.7c0 .2 0 .5.2.7l.2.1h.3a.7.7 0 00.5-.1zM40 9.5h1.2l.9 4 .9-4h1l.2 5.8h-.8l-.1-4-.9 4h-.7l-.8-4-.1 4h-.9l.1-5.8zM45.5 9.5h1.8c1 0 1.6.5 1.6 1.6 0 1-.6 1.6-1.7 1.6h-.6v2.6h-1.1V9.5zM47 12a.8.8 0 00.7-.2l.1-.7v-.5l-.1-.2h-.2a1 1 0 00-.5-.2h-.4V12h.4zM50.5 9.5h1.2l1.2 5.8h-1l-.3-1.4h-1l-.3 1.4h-1l1.2-5.8zm1 3.8l-.4-2.5-.4 2.5h.8zM53.9 9.5h.8l1.5 3.3V9.5h.9v5.8h-.8l-1.5-3.5v3.5h-1V9.5zM59.3 13L58 9.6h1l.8 2.3.7-2.3h1L60.4 13v2.2h-1V13zM32.8 17.8v.3H32v2.4h-.3V18h-1v-.3h2.2zM35.7 20.5h-.3l-.1-.1-.3-.6h-1.3l-.2.6-.1.1H33l1-2.7h.5l1.1 2.7zm-1.9-1H35l-.4-1-.1-.3v.1l-.1.1-.4 1.1zM37.6 20.2H38.2l.1-.1v-.6h-.5v-.3h.9v1a1.7 1.7 0 01-1.1.3H37l-.4-.4a1.3 1.3 0 01-.4-1v-.5l.4-.4.4-.3H38a1.4 1.4 0 01.7.2l-.1.2h-.2l-.2-.1a1.3 1.3 0 00-1 0 1 1 0 00-.3.2l-.2.3v1a1 1 0 00.6.5h.4zM41.2 20.2h1.2v.3h-1.6v-2.7h.4v2.4zM43.7 20.5h-.4v-2.7h.4v2.7zM45 17.8h.1l1.7 2v-2h.3v2.7H46.8l-1.7-2v2h-.3v-2.7h.2zM49.9 17.8v.3h-1.3v.9h1v.3h-1v.9h1.3v.3h-1.7v-2.7h1.7zM10 1.4l16.9 4.5v16l-17-4.6v-16zM8.8 0v18l19 5.2v-18L9 0z"/>
      <path d="M19.1 31.6L0 26.5V8.4l19.1 5.1v18.1z"/>
      <path d="M9.2 1.2l16.7 4.4-7.1 6.8L2 7.9l7-6.7zM8.9 0L0 8.4l19.1 5.1L28 5.1 8.9 0zM20.2 30.6l7.8-7.4-7.8-2v9.4z"/>
    </symbol>
    <symbol id="icon-icon-send" viewBox="0 0 32 32">
      <path fill="var(--color2, #fff)" d="M32 0L0 18l10.2 3.8L26 7 14 23.2V32l5.7-6.7L27 28l5-28z"/>
    </symbol>

    <symbol id="icon-image-mail" viewBox="0 0 43 32">
      <path d="M38.7 0H4C1.8 0 0 1.7 0 3.7v22.4C0 28.2 1.8 30 4 30h34.7c2.2 0 4-1.7 4-3.8V3.7c0-2-1.8-3.7-4-3.7zm0 2.5h.5L21.3 17 3.5 2.6l.5-.1h34.7zm0 24.9H4c-.7 0-1.3-.6-1.3-1.3V5.2l17.8 14.4c.2.2.5.3.8.3s.7 0 1-.3L40 5.2v21c0 .6-.6 1.2-1.3 1.2z"/>
    </symbol>
    <symbol id="icon-image-tel" viewBox="0 0 21 32">
      <path d="M18.1 0H3.2C1.4 0 0 1.3 0 3v25.9c0 1.6 1.4 3 3.2 3h15c1.7 0 3.1-1.4 3.1-3v-26C21.3 1.4 20 0 18.1 0zM3.2 2h15c.5 0 1 .4 1 1v20.9h-17v-21c0-.5.4-1 1-1zm15 27.9h-15c-.6 0-1-.5-1-1v-3h17v3c0 .5-.5 1-1 1z"/>
      <path d="M5 27.2c.4.4.4 1 0 1.4s-1 .4-1.5 0c-.4-.4-.4-1 0-1.4s1.1-.4 1.5 0z"/>
    </symbol>

    <symbol id="icon-logo-facebook" viewBox="0 0 32 32">
      <path d="M21.3 5.3h3v-5C23.6.1 22 0 20 0c-4.2 0-7.1 2.6-7.1 7.5V12H8.2v5.7H13V32h5.7V17.7h4.5l.7-5.7h-5.2V8c0-1.6.4-2.7 2.7-2.7z"/>
    </symbol>
    <symbol id="icon-logo-instagram" viewBox="0 0 32 32">
      <path d="M32 9.4c-.1-1.7-.4-2.9-.8-3.9s-1-2-1.8-2.8A7.9 7.9 0 0026.5.8c-1-.4-2.1-.6-3.8-.7A109.5 109.5 0 005.6.8c-1 .4-2 1-2.9 1.9C2 3.5 1.3 4.5 1 5.5.5 6.5.2 7.7.2 9.4a109.5 109.5 0 00.7 17c.4 1.2 1 2.1 1.8 3 .8.7 1.8 1.4 2.9 1.8 1 .4 2.2.6 3.9.7a117.2 117.2 0 0017-.7 8.2 8.2 0 004.7-4.7c.4-1 .7-2.2.8-3.9V16 9.4zm-3 13c0 1.6-.2 2.5-.5 3a5.3 5.3 0 01-3 3c-.6.3-1.4.6-3 .6a112.7 112.7 0 01-15.9-.5 5 5 0 01-1.8-1.2 5 5 0 01-1.2-1.9c-.2-.5-.5-1.4-.5-3a112.7 112.7 0 01.5-15.8c.3-.7.7-1.3 1.2-1.9a5 5 0 011.8-1.1c.6-.3 1.5-.5 3-.6a112.7 112.7 0 0115.9.6 5 5 0 011.8 1.1 5 5 0 011.2 1.9c.3.5.5 1.4.6 3a112.7 112.7 0 010 12.9z"/>
      <path d="M16 7.8a8.2 8.2 0 100 16.4 8.2 8.2 0 000-16.4zm0 13.5a5.3 5.3 0 110-10.6 5.3 5.3 0 010 10.6zM26.5 7.5a2 2 0 11-3.8 0 2 2 0 013.8 0z"/>
    </symbol>
    <symbol id="icon-logo-linkedin" viewBox="0 0 32 32">
      <path d="M32 32V20.3c0-5.8-1.2-10.2-8-10.2a7 7 0 00-6.2 3.4h-.1v-2.9h-6.4V32H18V21.4c0-2.8.6-5.5 4-5.5s3.5 3.2 3.5 5.7V32H32zM.5 10.6h6.7V32H.5V10.6zM3.8 0C1.8 0 0 1.7 0 3.8s1.7 4 3.8 4c2.2 0 3.9-1.8 3.9-4C7.7 1.8 6 0 3.8 0z"/>
    </symbol>
    <symbol id="icon-logo-twitter" viewBox="0 0 32 32">
      <path d="M32 6c-1.2.6-2.5 1-3.8 1.1 1.4-.8 2.4-2 3-3.6-1.4.7-2.8 1.3-4.3 1.6a6.6 6.6 0 00-11.2 6A18.6 18.6 0 012.2 4.2a6.6 6.6 0 002 8.8c-1 0-2-.4-3-.8 0 3.2 2.4 5.9 5.3 6.5a6.5 6.5 0 01-3 0 6.6 6.6 0 006.2 4.6A13.2 13.2 0 010 26.1 18.5 18.5 0 0028.7 9.5c1.3-1 2.4-2 3.3-3.4z"/>
    </symbol>
    <symbol id="icon-soft-1" viewBox="0 0 30 32">
      <path d="M29.9 22.1l-8.5-8.5 1-4.6.7.1a2.2 2.2 0 10-2-1.4l-5 .6-8-8.1a.5.5 0 00-.4-.2c-.2 0-.3 0-.4.2L5.8 1.7c-.2.2-.2.5 0 .7l.8.8A15 15 0 009.3 21v6.7H2.7a2.7 2.7 0 00-2.6 2.7v1c0 .4.2.6.5.6h24.5c.3 0 .6-.2.6-.5v-1.1c0-1.5-1.2-2.7-2.7-2.7h-6.4V25a15 15 0 0010-1.5l.9.9.4.1.3-.1 1.6-1.5c.2-.3.2-.6 0-.8zM22.4 6.2a1 1 0 11.7 1.9 1 1 0 01-.7-1.9zM21 9.7l-.6 3-1.2-1.2 1.8-1.8zm-.6-.9l-2 2-1.4-1.5 3.4-.5zm2.6 20c.9 0 1.6.7 1.6 1.6v.5H1.2v-.5c0-.9.7-1.6 1.6-1.6h20.3zm-7.5-2.1v1h-5.3v-1h5.3zm-5.3-1.1v-4c0-1.3 1.2-2.4 2.7-2.4s2.6 1 2.6 2.3v4.1h-5.3zm6.4-1.7v-2.4c0-1.8-1.7-3.4-3.7-3.4-1.4 0-2.6.7-3.3 1.8-4-4.3-5-10.6-2.3-15.9L26 22.7a13.8 13.8 0 01-9.3 1.2zm11.3-.7L7 2l.7-.7 8 8 13 13.2-.7.7z"/>
    </symbol>
    <symbol id="icon-soft-2" viewBox="0 0 31 32">
      <path d="M30.8 15.3a15.3 15.3 0 10-19.7 14.6h.3l.3-.4 3.9-12.3a2 2 0 10-.9-3.6l-5-5.1a.6.6 0 00-1 .9l5.1 5c-.4.9-.2 1.8.5 2.4l-3.6 11.7a14 14 0 1110.5-.4l-.4-1.9a.6.6 0 00-1-.3L16 29.3a.6.6 0 00.2 1.1L21 32a.6.6 0 00.8-.8l-.4-1.8c5.7-2.4 9.4-8 9.3-14.1zm-15.3-.6a.6.6 0 110 1.2.6.6 0 010-1.2zm2.1 14.8l2.2-2 .6 3-2.8-1z"/>
    </symbol>
    <symbol id="icon-soft-3" viewBox="0 0 32 32">
      <path d="M1.6 28.3h25.6c.9 0 1.6-.7 1.6-1.6v-2.1c0-1-.7-1.6-1.6-1.6h-.5V9.7l3-2.9a1.6 1.6 0 10-.8-.8l-2.2 2.2V7c0-1-.8-1.6-1.6-1.6H3.7c-.9 0-1.6.7-1.6 1.6v16h-.5c-.9 0-1.6.7-1.6 1.6v2c0 1 .7 1.7 1.6 1.7zM30.4 4.8a.5.5 0 110 1.1.5.5 0 010-1zM3.2 7c0-.3.2-.6.5-.6h21.4c.2 0 .5.3.5.6v2.2l-1 1V8c0-.3-.3-.5-.6-.5H4.8c-.3 0-.5.2-.5.5v13.4c0 .3.2.5.5.5H24c.3 0 .5-.2.5-.5v-9.7l1-1V23H3.3V7zM8 13.9a1.6 1.6 0 101.1 2.7l1.9 1 .6-.1 4-4.5 3.8 3 .7-.1 3.4-3.2v8.1H5.3V8.6h18.2v2.6l-3.8 3.6-4-3a.5.5 0 00-.6.1l-4 4.5-1.5-.7v-.2c0-.9-.7-1.6-1.6-1.6zm.5 1.6a.5.5 0 11-1 0 .5.5 0 011 0zm3.2 8.5h5.4v.6c0 .3-.3.5-.6.5h-4.2a.5.5 0 01-.6-.5V24zm-10.6.6c0-.3.2-.6.5-.6h9v.6c0 .8.8 1.6 1.7 1.6h4.2c1 0 1.6-.8 1.6-1.6V24h9c.4 0 .6.3.6.6v2c0 .4-.2.6-.5.6H1.6a.5.5 0 01-.5-.5v-2.1z"/>
    </symbol>
    <symbol id="icon-soft-4" viewBox="0 0 32 32">
      <path d="M30 13.6a2 2 0 00-1.4-.8 2 2 0 00-1.6.4l-1.4 1.1-2.2 1.6-1.5-.6A8 8 0 0018.6.1a8 8 0 00-6.7 12.3H8.7h-.2l-3.8 1.9-2.1 1h-.1a2 2 0 002 3.5l1.7-.8 2.6-1.3h1.5l-6.2 6.2-1.5 1.5c-.4.4-.6.8-.6 1.3a2 2 0 003.3 1.4l1.5-1.5 2-1.5 1 1-2 2-1.6 1.6A2 2 0 009 31.4l4-4 1.2-1.1 6-6.6 4 .6H24.4l3.8-2.5v-.1l1.5-1.4a2 2 0 00.2-2.7zM4 17.8h-.6a.8.8 0 01-.3-1.4l1.5-.7.6 1.5-1.2.6zm4-2.1l-1.7.9-.5-1.5L8 14v1.7zM25.4 8c0 1-.3 2-.7 3l-4.8-2.3c0-.6-.4-1.2-1-1.6l1.7-5.5c2.8.8 4.8 3.4 4.8 6.4zM11.8 8a6.8 6.8 0 017.6-6.7l-1.6 5.5c-1.2 0-2.2 1-2.2 2s1 2.2 2.1 2.2c.8 0 1.5-.4 1.9-1l4.4 2a6.8 6.8 0 01-12.2-4zm6.9.9c0 .5-.4 1-1 1s-.9-.5-.9-1 .4-1 1-1 .9.5.9 1zM4.4 26.2c-.3.3-.7.3-1 0a.7.7 0 010-1l1.1-1 1 1-1.1 1zm3.7 4.3c-.3.3-.7.3-1 0a.7.7 0 010-1l1.1-1 1 1-1.1 1zm4-4l-2 2-1-1 2-2h.1v-.1-.2-.2-.3H11l-1.8-1.8h-.1l-.1-.1H9l-.1-.1h-.1-.2l-.1.1-2 1.5-1.1-1L8 20.6l5 4.9-1 1zm7.8-8a.7.7 0 00-.3 0l-.2.1-5.4 6-5-4.9 3.3-3.2a.6.6 0 00-.5-1H9.3v-2l3.6.1A8 8 0 0020 16h.1l2.8 1.2.2.9.2 1-3.5-.5zm4.6.2l-.3-1.8 1.6-1.2L27 17l-2.4 1.6zm4.4-3.3l-1 1-1-1.5.9-.7.6-.2c.2 0 .4.2.6.4.2.3.2.8-.1 1z"/>
    </symbol>
  </defs>
</svg>
